HIERARCHY
ROOT Hips
{
  OFFSET 13.9192 87.0099 7.45665
  CHANNELS 6 Xposition Yposition Zposition Zrotation Xrotation Yrotation
  JOINT RightUpLeg
  {
    OFFSET -9.25892 -1.51126 0.0103963
    CHANNELS 3 Zrotation Xrotation Yrotation
    JOINT RightLeg
    {
      OFFSET -0.0493687 -41.9019 0.103893
      CHANNELS 3 Zrotation Xrotation Yrotation
      JOINT RightFoot
      {
        OFFSET -1.32222 -41.6903 -0.651221
        CHANNELS 3 Zrotation Xrotation Yrotation
        End Site
        {
          OFFSET 0 -7.69 17.5
        }
      }
    }
  }
  JOINT LeftUpLeg
  {
    OFFSET 9.27814 -1.57439 0.0532125
    CHANNELS 3 Zrotation Xrotation Yrotation
    JOINT LeftLeg
    {
      OFFSET 0.0812204 -41.881 0.0464493
      CHANNELS 3 Zrotation Xrotation Yrotation
      JOINT LeftFoot
      {
        OFFSET -0.0110097 -42.3775 0.673629
        CHANNELS 3 Zrotation Xrotation Yrotation
        End Site
        {
          OFFSET 0 -7.69 17.5
        }
      }
    }
  }
  JOINT Spine
  {
    OFFSET 0.0235844 14.3019 0.0112981
    CHANNELS 3 Zrotation Xrotation Yrotation
    JOINT Spine1
    {
      OFFSET 0.0175769 9.71285 0.00895779
      CHANNELS 3 Zrotation Xrotation Yrotation
      JOINT Spine2
      {
        OFFSET 0.0285364 10.1117 0.00103808
        CHANNELS 3 Zrotation Xrotation Yrotation
        JOINT Spine3
        {
          OFFSET 0.0259409 9.72657 0.0104237
          CHANNELS 3 Zrotation Xrotation Yrotation
          JOINT Neck
          {
            OFFSET -0.0111787 10.3773 0.0255796
            CHANNELS 3 Zrotation Xrotation Yrotation
            JOINT Head
            {
              OFFSET -0.00267722 9.48908 0.0510269
              CHANNELS 3 Zrotation Xrotation Yrotation
              End Site
              {
                OFFSET 0 15.95 0
              }
            }
          }
          JOINT RightShoulder
          {
            OFFSET -3.1909 6.94591 0.0199124
            CHANNELS 3 Zrotation Xrotation Yrotation
            JOINT RightArm
            {
              OFFSET -12.7524 0.0197095 0.0110528
              CHANNELS 3 Zrotation Xrotation Yrotation
              JOINT RightForeArm
              {
                OFFSET -26.4891 -0.0606575 0.0254635
                CHANNELS 3 Zrotation Xrotation Yrotation
                JOINT RightHand
                {
                  OFFSET -26.017 -0.0465962 -0.00264686
                  CHANNELS 3 Zrotation Xrotation Yrotation
                  JOINT RightHandThumb1
                  {
                    OFFSET -2.48905 0.190105 3.12053
                    CHANNELS 3 Zrotation Xrotation Yrotation
                    JOINT RightHandThumb2
                    {
                      OFFSET -3.68274 0 0
                      CHANNELS 3 Zrotation Xrotation Yrotation
                      JOINT RightHandThumb3
                      {
                        OFFSET -2.55832 0 0
                        CHANNELS 3 Zrotation Xrotation Yrotation
                        End Site
                        {
                          OFFSET -2.194 0 0
                        }
                      }
                    }
                  }
                  JOINT RightInHandIndex
                  {
                    OFFSET -3.22368 0.508421 1.97842
                    CHANNELS 3 Zrotation Xrotation Yrotation
                    JOINT RightHandIndex1
                    {
                      OFFSET -5.21684 -0.091368 0.999158
                      CHANNELS 3 Zrotation Xrotation Yrotation
                      JOINT RightHandIndex2
                      {
                        OFFSET -3.61937 0 0
                        CHANNELS 3 Zrotation Xrotation Yrotation
                        JOINT RightHandIndex3
                        {
                          OFFSET -2.0521 0 0
                          CHANNELS 3 Zrotation Xrotation Yrotation
                          End Site
                          {
                            OFFSET -1.805 0 0
                          }
                        }
                      }
                    }
                  }
                  JOINT RightInHandMiddle
                  {
                    OFFSET -3.38211 0.517263 0.756737
                    CHANNELS 3 Zrotation Xrotation Yrotation
                    JOINT RightHandMiddle1
                    {
                      OFFSET -5.17411 -0.084 0.313895
                      CHANNELS 3 Zrotation Xrotation Yrotation
                      JOINT RightHandMiddle2
                      {
                        OFFSET -3.94947 0 0
                        CHANNELS 3 Zrotation Xrotation Yrotation
                        JOINT RightHandMiddle3
                        {
                          OFFSET -2.47579 0 0
                          CHANNELS 3 Zrotation Xrotation Yrotation
                          End Site
                          {
                            OFFSET -1.975 0 0
                          }
                        }
                      }
                    }
                  }
                  JOINT RightInHandRing
                  {
                    OFFSET -3.36516 0.537895 -0.128947
                    CHANNELS 3 Zrotation Xrotation Yrotation
                    JOINT RightHandRing1
                    {
                      OFFSET -4.63474 -0.022105 -0.478947
                      CHANNELS 3 Zrotation Xrotation Yrotation
                      JOINT RightHandRing2
                      {
                        OFFSET -3.44238 0 0
                        CHANNELS 3 Zrotation Xrotation Yrotation
                        JOINT RightHandRing3
                        {
                          OFFSET -2.3881 0 0
                          CHANNELS 3 Zrotation Xrotation Yrotation
                          End Site
                          {
                            OFFSET -1.857 0 0
                          }
                        }
                      }
                    }
                  }
                  JOINT RightInHandPinky
                  {
                    OFFSET -3.16105 0.469368 -1.20179
                    CHANNELS 3 Zrotation Xrotation Yrotation
                    JOINT RightHandPinky1
                    {
                      OFFSET -4.14105 -0.022105 -1.09053
                      CHANNELS 3 Zrotation Xrotation Yrotation
                      JOINT RightHandPinky2
                      {
                        OFFSET -2.75653 0 0
                        CHANNELS 3 Zrotation Xrotation Yrotation
                        JOINT RightHandPinky3
                        {
                          OFFSET -1.74189 0 0
                          CHANNELS 3 Zrotation Xrotation Yrotation
                          End Site
                          {
                            OFFSET -1.645 0 0
                          }
                        }
                      }
                    }
                  }
                }
              }
            }
          }
          JOINT LeftShoulder
          {
            OFFSET 3.2161 6.92611 -0.00186679
            CHANNELS 3 Zrotation Xrotation Yrotation
            JOINT LeftArm
            {
              OFFSET 12.7484 -0.0283569 -0.0302446
              CHANNELS 3 Zrotation Xrotation Yrotation
              JOINT LeftForeArm
              {
                OFFSET 26.4766 -0.0880322 -0.0033192
                CHANNELS 3 Zrotation Xrotation Yrotation
                JOINT LeftHand
                {
                  OFFSET 26.0079 -0.0456134 -0.0735001
                  CHANNELS 3 Zrotation Xrotation Yrotation
                  JOINT LeftHandThumb1
                  {
                    OFFSET 2.48905 0.190105 3.12053
                    CHANNELS 3 Zrotation Xrotation Yrotation
                    JOINT LeftHandThumb2
                    {
                      OFFSET 3.68274 0 0
                      CHANNELS 3 Zrotation Xrotation Yrotation
                      JOINT LeftHandThumb3
                      {
                        OFFSET 2.55832 0 0
                        CHANNELS 3 Zrotation Xrotation Yrotation
                        End Site
                        {
                          OFFSET 2.194 0 0
                        }
                      }
                    }
                  }
                  JOINT LeftInHandIndex
                  {
                    OFFSET 3.22368 0.508421 1.97842
                    CHANNELS 3 Zrotation Xrotation Yrotation
                    JOINT LeftHandIndex1
                    {
                      OFFSET 5.21684 -0.091368 0.999158
                      CHANNELS 3 Zrotation Xrotation Yrotation
                      JOINT LeftHandIndex2
                      {
                        OFFSET 3.61937 0 0
                        CHANNELS 3 Zrotation Xrotation Yrotation
                        JOINT LeftHandIndex3
                        {
                          OFFSET 2.0521 0 0
                          CHANNELS 3 Zrotation Xrotation Yrotation
                          End Site
                          {
                            OFFSET 1.805 0 0
                          }
                        }
                      }
                    }
                  }
                  JOINT LeftInHandMiddle
                  {
                    OFFSET 3.38211 0.517263 0.756737
                    CHANNELS 3 Zrotation Xrotation Yrotation
                    JOINT LeftHandMiddle1
                    {
                      OFFSET 5.17411 -0.084 0.313895
                      CHANNELS 3 Zrotation Xrotation Yrotation
                      JOINT LeftHandMiddle2
                      {
                        OFFSET 3.94947 0 0
                        CHANNELS 3 Zrotation Xrotation Yrotation
                        JOINT LeftHandMiddle3
                        {
                          OFFSET 2.47579 0 0
                          CHANNELS 3 Zrotation Xrotation Yrotation
                          End Site
                          {
                            OFFSET 1.975 0 0
                          }
                        }
                      }
                    }
                  }
                  JOINT LeftInHandRing
                  {
                    OFFSET 3.36516 0.537895 -0.128947
                    CHANNELS 3 Zrotation Xrotation Yrotation
                    JOINT LeftHandRing1
                    {
                      OFFSET 4.63474 -0.022105 -0.478947
                      CHANNELS 3 Zrotation Xrotation Yrotation
                      JOINT LeftHandRing2
                      {
                        OFFSET 3.44238 0 0
                        CHANNELS 3 Zrotation Xrotation Yrotation
                        JOINT LeftHandRing3
                        {
                          OFFSET 2.3881 0 0
                          CHANNELS 3 Zrotation Xrotation Yrotation
                          End Site
                          {
                            OFFSET 1.857 0 0
                          }
                        }
                      }
                    }
                  }
                  JOINT LeftInHandPinky
                  {
                    OFFSET 3.16105 0.469368 -1.20179
                    CHANNELS 3 Zrotation Xrotation Yrotation
                    JOINT LeftHandPinky1
                    {
                      OFFSET 4.14105 -0.022105 -1.09053
                      CHANNELS 3 Zrotation Xrotation Yrotation
                      JOINT LeftHandPinky2
                      {
                        OFFSET 2.75653 0 0
                        CHANNELS 3 Zrotation Xrotation Yrotation
                        JOINT LeftHandPinky3
                        {
                          OFFSET 1.74189 0 0
                          CHANNELS 3 Zrotation Xrotation Yrotation
                          End Site
                          {
                            OFFSET 1.645 0 0
                          }
                        }
                      }
                    }
                  }
                }
              }
            }
          }
        }
      }
    }
  }
}
MOTION
Frames: 3
Frame Time: 0.00833333
4.500110641462899252e+02 3.505031467412081728e-03 -2.701322845968860686e-02 3.051846346578971844e-02 2.548270850599269888e-02 1.694544989638520696e-02 -4.525087556032914710e-02 2.442524451945431337e-03 -2.770948007326180448e-02 6.645187602095298240e-02 -7.363715649201395611e-03 -4.757241049649629100e-02 -3.554938257284122501e-03 5.128365165167988841e-03 -6.049522652924193417e-02 -1.842892712343791317e-01 -6.316037178490623016e-02 -2.248126184447802045e-01 1.815773713732635464e-01 4.917511599573397285e-03 -8.817777669200457802e-02 -1.326485165735961057e-02 -4.227482731965064716e-02 9.859507042035056679e-02 3.343523393558825441e-03 -1.430507587672412775e-02 2.279014897184131194e-02 -1.233218681813788489e-03 5.953199050643316614e-02 1.135719801460960757e-02 -1.668216335350588587e-03 5.700016900442525687e-03 1.358735040671025900e-02 2.088290342497202932e-03 -6.399897825383727389e-03 -5.790679508251756619e-03 1.802454974894460854e-02 -8.452371802451907196e-03 -8.706368311449715069e-02 5.688474618408948663e-02 -1.064910788343381848e-01 -9.313664638072900737e-02 1.720051936491802033e-02 -1.560274345015146835e-01 -1.079072238305976705e-01 2.982785784257253603e-01 7.486023842086981794e-01 -1.946959325997943968e-01 4.853077641452984148e-01 -9.652711973623000485e-01 1.342237646189354816e+00 -3.275341926357144273e-01 -6.367394163396492557e-01 -4.115782847647941889e-01 0.000000000000000000e+00 0.000000000000000000e+00 0.000000000000000000e+00 -3.703800164113183203e-16 -4.337034753648582684e-16 0.000000000000000000e+00 -8.615871575708284512e-16 -1.370632120604773469e-15 0.000000000000000000e+00 -1.217748393645507889e-15 7.136934222011639504e-16 -1.751995935907800934e-18 0.000000000000000000e+00 0.000000000000000000e+00 0.000000000000000000e+00 0.000000000000000000e+00 1.345772607888909904e-15 1.592517748084660219e-15 0.000000000000000000e+00 3.568147404939715923e-16 4.441371890054806389e-15 -1.217748393645507889e-15 7.136934222011639504e-16 -1.751995935907800934e-18 0.000000000000000000e+00 3.397067910269859040e-16 2.571218275022081709e-15 0.000000000000000000e+00 -7.060715644026485567e-16 4.038658421627619161e-15 0.000000000000000000e+00 1.676598886759336003e-15 3.706687778058363138e-15 -1.217748393645507889e-15 7.136934222011639504e-16 -1.751995935907800934e-18 0.000000000000000000e+00 0.000000000000000000e+00 0.000000000000000000e+00 0.000000000000000000e+00 -6.837388892156004443e-17 1.711578358947605512e-15 0.000000000000000000e+00 1.030998743986185763e-15 5.343519436963104626e-15 -1.217748393645507889e-15 7.136934222011639504e-16 -1.751995935907800934e-18 0.000000000000000000e+00 0.000000000000000000e+00 0.000000000000000000e+00 0.000000000000000000e+00 1.694076956921692444e-15 4.922667643326598441e-15 0.000000000000000000e+00 1.813655859310102412e-15 3.561721232833538275e-15 1.346461400552069997e-03 -6.714433706802146185e-02 3.315258889809080678e-02 2.647990151517247703e-01 4.596510890271877647e-01 1.057242902112171395e-01 -1.212080897969121551e+00 1.108874584392004897e-01 -1.276337034898670009e+00 2.115378829578768105e+00 5.611866344335855183e-01 1.753376194102224783e+00 0.000000000000000000e+00 0.000000000000000000e+00 0.000000000000000000e+00 -1.180525490830500434e-15 5.683671090612424393e-16 0.000000000000000000e+00 1.364582911952923431e-15 -5.134214744481939654e-16 0.000000000000000000e+00 9.084227939558962142e-16 1.014720392067804782e-15 -5.227574277982070810e-16 0.000000000000000000e+00 0.000000000000000000e+00 0.000000000000000000e+00 0.000000000000000000e+00 -3.070194373499768292e-15 3.099700436247080011e-15 0.000000000000000000e+00 9.117726303462067373e-16 2.040689606114844763e-15 9.084227939558962142e-16 1.014720392067804782e-15 -5.227574277982070810e-16 0.000000000000000000e+00 1.074166067434802201e-15 -6.144331120269023054e-16 0.000000000000000000e+00 -9.382758732469121294e-16 3.807453768972636549e-15 0.000000000000000000e+00 3.115306029272714180e-16 7.108659636887032291e-16 9.084227939558962142e-16 1.014720392067804782e-15 -5.227574277982070810e-16 0.000000000000000000e+00 0.000000000000000000e+00 0.000000000000000000e+00 0.000000000000000000e+00 -3.775080038133126543e-15 2.753429636007449846e-15 0.000000000000000000e+00 -1.918668850362256648e-15 1.647552033983598624e-15 9.084227939558962142e-16 1.014720392067804782e-15 -5.227574277982070810e-16 0.000000000000000000e+00 0.000000000000000000e+00 0.000000000000000000e+00 0.000000000000000000e+00 7.586492732491844010e-16 1.144649160489530717e-15 0.000000000000000000e+00 -5.601351437237240817e-17 2.338675356878803610e-15
4.500123295896157742e+02 1.822431367807947518e-03 -2.832593000879566475e-02 2.132921616432310180e-02 2.372295578374422273e-02 1.350516499368384880e-02 -4.304452448448965740e-02 2.753307723367202052e-03 -1.801344527207362697e-02 6.504418735459778500e-02 -3.882742378477185580e-03 -5.427220965554088034e-02 -4.603056286203661800e-03 7.163863099095077111e-03 -4.485806679404254205e-02 -1.745912265637671879e-01 -5.345059884782372289e-02 -2.080412789330701173e-01 1.604357174935374941e-01 5.895424048125500784e-03 -6.591617753083334197e-02 -1.470165187272558585e-02 -3.235706449073462443e-02 7.477071154579911783e-02 -5.794988310278964896e-03 -3.598118147364058432e-03 5.712169503023274697e-02 -2.708812906704806400e-03 5.527888860988726394e-02 1.971673710393399490e-02 -3.883712985657610320e-03 2.613352139234718582e-03 2.537159061210755504e-02 2.436228309467993684e-03 -6.402704116572180242e-03 -6.355881785205791737e-03 1.309660354086134362e-02 -8.926427058193629402e-03 -5.518255391706215762e-02 5.319342575072652513e-02 -8.081649102864361944e-02 -1.220385867177804784e-01 1.854159077842545272e-02 -1.566770954027124907e-01 -1.161857570539329559e-01 1.991492992143352181e-01 5.759996945700158744e-01 -3.756005635438601220e-01 7.846126751661370857e-01 -8.640389770007843584e-01 1.327331063166321767e+00 -2.997016342318151172e-01 -5.640341835251656555e-01 -4.437318419554248106e-01 0.000000000000000000e+00 0.000000000000000000e+00 0.000000000000000000e+00 -3.335824334823896808e-16 1.372424969047789387e-16 0.000000000000000000e+00 -1.003448966035358397e-15 -9.367011062419978085e-16 0.000000000000000000e+00 -1.114182320689820867e-15 7.112356250797581715e-16 1.608488081310811643e-16 0.000000000000000000e+00 0.000000000000000000e+00 0.000000000000000000e+00 0.000000000000000000e+00 1.099942735085803594e-15 9.487866748472719810e-16 0.000000000000000000e+00 -1.144991151270451104e-16 2.741111762405220889e-15 -1.114182320689820867e-15 7.112356250797581715e-16 1.608488081310811643e-16 0.000000000000000000e+00 5.734493307022625181e-16 1.742921269744291622e-15 0.000000000000000000e+00 -5.767216873382109624e-16 2.696836591739584313e-15 0.000000000000000000e+00 1.336045003275910766e-15 2.034953910977438647e-15 -1.114182320689820867e-15 7.112356250797581715e-16 1.608488081310811643e-16 0.000000000000000000e+00 0.000000000000000000e+00 0.000000000000000000e+00 0.000000000000000000e+00 1.898883794150455487e-16 9.527019382097449856e-16 0.000000000000000000e+00 8.203046830608943846e-16 3.044485612018993144e-15 -1.114182320689820867e-15 7.112356250797581715e-16 1.608488081310811643e-16 0.000000000000000000e+00 0.000000000000000000e+00 0.000000000000000000e+00 0.000000000000000000e+00 1.279630997182450616e-15 3.253373651772880460e-15 0.000000000000000000e+00 1.148163982000384587e-15 1.715270745511209307e-15 -2.176282043269786928e-02 -8.269673922860477921e-02 -1.605419251521402607e-02 3.283008543837797610e-01 4.842944308463631997e-01 5.029603117068753154e-02 -1.131841639454209902e+00 2.396190067821999878e-02 -1.153170322380547841e+00 2.243895687074284773e+00 5.537893862071037177e-01 1.904880029677755715e+00 0.000000000000000000e+00 0.000000000000000000e+00 0.000000000000000000e+00 -5.297416609243961844e-16 1.842841047911446471e-16 0.000000000000000000e+00 9.216515679879668848e-16 -6.200059731868589482e-16 0.000000000000000000e+00 5.135772753874237434e-16 8.708279948171381554e-16 -5.260062397565444380e-16 0.000000000000000000e+00 0.000000000000000000e+00 0.000000000000000000e+00 0.000000000000000000e+00 -2.524204118340989153e-15 2.988693729239179328e-15 0.000000000000000000e+00 2.730938710791586710e-16 2.334925368977995499e-15 5.135772753874237434e-16 8.708279948171381554e-16 -5.260062397565444380e-16 0.000000000000000000e+00 6.803478443225897528e-16 -9.759749647935658043e-17 0.000000000000000000e+00 -1.048615009159477560e-15 3.421074653731019556e-15 0.000000000000000000e+00 3.705802886983963641e-16 1.247307117637092463e-15 5.135772753874237434e-16 8.708279948171381554e-16 -5.260062397565444380e-16 0.000000000000000000e+00 0.000000000000000000e+00 0.000000000000000000e+00 0.000000000000000000e+00 -2.156074991547122918e-15 2.371843285168441230e-15 0.000000000000000000e+00 -1.790940206286477353e-15 1.865795773048396023e-15 5.135772753874237434e-16 8.708279948171381554e-16 -5.260062397565444380e-16 0.000000000000000000e+00 0.000000000000000000e+00 0.000000000000000000e+00 0.000000000000000000e+00 6.384999220137154078e-16 1.494143691498743802e-15 0.000000000000000000e+00 -5.971853714340457774e-16 2.239769766603780400e-15
4.500147491212603086e+02 -5.358279843785881957e-04 -3.075308102996529569e-02 1.256214217717797552e-02 2.053559445801024508e-02 7.464273041933725157e-03 -3.734205427447272185e-02 2.369442577938081322e-03 -1.398537879197066930e-02 5.780316229267981609e-02 -1.451719892298711234e-03 -4.870459775407788572e-02 -5.163733940415254561e-03 7.487285210079928054e-03 -2.605637030459105954e-02 -1.540747180913706604e-01 -3.825015682485899404e-02 -1.789792425393752218e-01 1.322329159416572586e-01 7.071194382007567336e-03 -4.602700936147162414e-02 -1.653005904357205888e-02 -2.243378842133459533e-02 5.096370363694597422e-02 -1.592296984149361994e-02 4.470625690440224731e-03 7.956920912609719010e-02 -4.597341988674862913e-03 5.013142349976132395e-02 2.492081713473859317e-02 -6.593234994877278550e-03 -3.610173798773243670e-03 3.222147444465089244e-02 2.824465456264773321e-03 -6.626401038054396953e-03 -5.991824884761760145e-03 1.655659836105134643e-03 -9.141048391337556686e-03 8.502329186126604890e-03 5.394037631519808806e-02 -4.391809827837306335e-02 -1.569816900959376538e-01 1.729587749705209510e-02 -1.519736418999643457e-01 -1.092455779513791247e-01 1.030125387799631087e-01 4.333701137767997924e-01 -5.388987233707361879e-01 1.066889065518022317e+00 -8.214240327524979790e-01 1.359908396890071147e+00 -2.592091948887592090e-01 -4.730729228299089817e-01 -4.607234607741776955e-01 0.000000000000000000e+00 0.000000000000000000e+00 0.000000000000000000e+00 -2.453694541109008380e-16 5.326199528441837340e-16 0.000000000000000000e+00 -4.961708105387184236e-16 -6.386236097602169050e-16 0.000000000000000000e+00 -8.946844647597985203e-16 5.704237414603846919e-16 2.823735657847543815e-16 0.000000000000000000e+00 0.000000000000000000e+00 0.000000000000000000e+00 0.000000000000000000e+00 7.914326103896294918e-16 2.004684896214254307e-17 0.000000000000000000e+00 -4.403340720013726127e-16 1.317582164180537020e-15 -8.946844647597985203e-16 5.704237414603846919e-16 2.823735657847543815e-16 0.000000000000000000e+00 6.408306583392311354e-16 7.379177241873056183e-16 0.000000000000000000e+00 -3.829138278326630333e-16 9.846328229700611826e-16 0.000000000000000000e+00 1.011550516309500568e-15 9.144000143053951791e-16 -8.946844647597985203e-16 5.704237414603846919e-16 2.823735657847543815e-16 0.000000000000000000e+00 0.000000000000000000e+00 0.000000000000000000e+00 0.000000000000000000e+00 9.528323619671318661e-17 -1.518218784111768720e-16 0.000000000000000000e+00 5.651633370769600155e-16 1.128397279184932792e-15 -8.946844647597985203e-16 5.704237414603846919e-16 2.823735657847543815e-16 0.000000000000000000e+00 0.000000000000000000e+00 0.000000000000000000e+00 0.000000000000000000e+00 5.738577046363320063e-16 1.291339435494062105e-15 0.000000000000000000e+00 2.713210288952099174e-16 3.091367192222921376e-16 -4.047385848695719823e-02 -8.563580427713921028e-02 -4.873924941098936592e-02 3.945596812587101598e-01 4.826347026949688868e-01 -1.823629093914189495e-02 -9.765636100542471887e-01 -4.695141809363246460e-02 -9.024537670780169440e-01 2.237336566830661511e+00 4.780917343115369533e-01 1.924481522214489981e+00 0.000000000000000000e+00 0.000000000000000000e+00 0.000000000000000000e+00 1.136270712559400430e-16 -2.373851562339443458e-16 0.000000000000000000e+00 4.713925856928564167e-16 -7.113984184294879557e-16 0.000000000000000000e+00 1.644707336495763840e-16 6.440004664438027395e-16 -3.353794021862059208e-16 0.000000000000000000e+00 0.000000000000000000e+00 0.000000000000000000e+00 0.000000000000000000e+00 -1.701590847248374031e-15 2.908359867580936157e-15 0.000000000000000000e+00 -1.649147334992101602e-16 2.700011443538561418e-15 1.644707336495763840e-16 6.440004664438027395e-16 -3.353794021862059208e-16 0.000000000000000000e+00 2.286208198425346914e-16 2.329451725581804148e-16 0.000000000000000000e+00 -1.027357962926437267e-15 2.971141858271507600e-15 0.000000000000000000e+00 7.426961027014787537e-17 1.896568141355077170e-15 1.644707336495763840e-16 6.440004664438027395e-16 -3.353794021862059208e-16 0.000000000000000000e+00 0.000000000000000000e+00 0.000000000000000000e+00 0.000000000000000000e+00 -6.883179823085689770e-16 2.079005168501722710e-15 0.000000000000000000e+00 -1.225866245568277868e-15 2.191081576974285156e-15 1.644707336495763840e-16 6.440004664438027395e-16 -3.353794021862059208e-16 0.000000000000000000e+00 0.000000000000000000e+00 0.000000000000000000e+00 0.000000000000000000e+00 4.673740947927065747e-16 2.118237590903773013e-15 0.000000000000000000e+00 -8.837355213495580493e-16 2.392970799654034563e-15
